# Blender v2.79 (sub 0) OBJ File: ''
# www.blender.org
mtllib lg_ultrahdtv_189.mtl
v -0.845799 0.065589 -0.025827
v 0.845799 0.065589 -0.025827
v -0.845799 1.049199 0.039024
v 0.845799 1.049199 0.039024
v -0.845799 0.065589 0.056453
v 0.845799 0.065589 0.056453
v -0.845799 1.049199 0.056453
v -0.845799 0.799176 -0.025827
v 0.845799 0.799176 -0.025827
v 0.845799 1.049199 0.056453
v -0.071134 0.002999 -0.098286
v -0.071134 0.230410 -0.021917
v 0.071134 0.230410 -0.021917
v 0.071134 0.002999 -0.021917
v 0.071134 0.002999 -0.098286
v -0.071134 0.002999 -0.021917
v -0.000741 0.000431 -0.036640
v -0.000741 0.056265 -0.020635
v -0.000741 0.000431 -0.004631
v 0.123267 0.000431 -0.028941
v 0.114483 0.056265 -0.013482
v 0.105699 0.000431 0.001977
v 0.238824 0.000431 -0.006370
v 0.221854 0.056265 0.007491
v 0.204885 0.000431 0.021351
v 0.338055 0.000431 0.029537
v 0.314056 0.056265 0.040854
v 0.290058 0.000431 0.052171
v 0.414198 0.000431 0.076331
v 0.384805 0.056265 0.084333
v 0.355413 0.000431 0.092335
v 0.462063 0.000431 0.130823
v 0.429280 0.056265 0.134966
v 0.396497 0.000431 0.139108
v 0.478389 0.000431 0.205361
v 0.444450 0.056265 0.189301
v 0.410510 0.000431 0.205361
v -0.479871 0.000431 0.205361
v -0.445931 0.056265 0.189301
v -0.411992 0.000431 0.205361
v -0.463545 0.000431 0.130823
v -0.430762 0.056265 0.134966
v -0.397979 0.000431 0.139108
v -0.415680 0.000431 0.076331
v -0.386287 0.056265 0.084333
v -0.356895 0.000431 0.092335
v -0.339537 0.000431 0.029537
v -0.315538 0.056265 0.040854
v -0.291540 0.000431 0.052171
v -0.240306 0.000431 -0.006370
v -0.223336 0.056265 0.007491
v -0.206367 0.000431 0.021351
v -0.124749 0.000431 -0.028941
v -0.115965 0.056265 -0.013482
v -0.107181 0.000431 0.001977
vt 0.750915 0.672943
vt 0.743262 0.664160
vt 0.743262 0.672943
vt 0.993760 0.575162
vt 0.499534 0.292758
vt 0.993760 0.292758
vt 0.635716 0.994331
vt 0.014964 0.999029
vt 0.014964 0.994331
vt 0.752900 0.897901
vt 0.728899 0.653022
vt 0.752900 0.653022
vt 0.009866 0.992920
vt 0.637132 0.998954
vt 0.637132 0.992920
vt 0.734182 0.961037
vt 0.752900 0.897901
vt 0.728899 0.961037
vt 0.750915 0.675936
vt 0.743262 0.675936
vt 0.734182 0.961037
vt 0.728899 0.961037
vt 0.728899 0.653022
vt 0.752900 0.653022
vt 0.769812 0.655545
vt 0.762091 0.665600
vt 0.762091 0.655545
vt 0.760100 0.692494
vt 0.777640 0.650946
vt 0.760100 0.650946
vt 0.769795 0.667478
vt 0.760774 0.656521
vt 0.760774 0.667478
vt 0.769795 0.656521
vt 0.777640 0.650946
vt 0.760100 0.692494
vt 0.760100 0.650946
vt 0.321340 0.607156
vt 0.373268 0.618454
vt 0.377227 0.607156
vt 0.321486 0.606783
vt 0.363776 0.619157
vt 0.367266 0.606783
vt 0.319802 0.617506
vt 0.321456 0.616286
vt 0.319802 0.616495
vt 0.416352 0.616180
vt 0.419452 0.604124
vt 0.403184 0.616630
vt 0.409926 0.604256
vt 0.321729 0.617263
vt 0.322998 0.615674
vt 0.446789 0.613149
vt 0.446742 0.601345
vt 0.437024 0.614609
vt 0.446559 0.602235
vt 0.323526 0.616550
vt 0.324322 0.614701
vt 0.462253 0.611128
vt 0.462615 0.600082
vt 0.462991 0.611830
vt 0.466332 0.600467
vt 0.325068 0.615416
vt 0.325338 0.613432
vt 0.474970 0.609359
vt 0.474586 0.598314
vt 0.472998 0.610062
vt 0.475413 0.599204
vt 0.326252 0.613938
vt 0.325977 0.611955
vt 0.491912 0.608096
vt 0.490786 0.596293
vt 0.490282 0.596930
vt 0.326996 0.612217
vt 0.326195 0.609863
vt 0.150263 0.607944
vt 0.165971 0.597960
vt 0.150403 0.596646
vt 0.149798 0.596213
vt 0.163658 0.608976
vt 0.158212 0.597767
vt 0.313409 0.609863
vt 0.312608 0.612217
vt 0.313627 0.611955
vt 0.167937 0.608930
vt 0.174406 0.598945
vt 0.174716 0.599691
vt 0.313352 0.613938
vt 0.314265 0.613432
vt 0.178128 0.610572
vt 0.190986 0.601244
vt 0.179981 0.611288
vt 0.196413 0.602841
vt 0.314535 0.615416
vt 0.315281 0.614701
vt 0.193920 0.612542
vt 0.218756 0.604017
vt 0.205948 0.615216
vt 0.233046 0.605469
vt 0.316078 0.616550
vt 0.316605 0.615674
vt 0.226404 0.615315
vt 0.265453 0.607156
vt 0.239788 0.617843
vt 0.275706 0.606783
vt 0.317874 0.617263
vt 0.318147 0.616286
vt 0.269412 0.618454
vt 0.279196 0.619157
vt 0.151111 0.596813
vt 0.161198 0.599653
vt 0.159742 0.608252
vt 0.483005 0.608656
vt 0.482902 0.597426
vt 0.490687 0.597620
vt 0.750915 0.664160
vt 0.499534 0.575162
vt 0.635716 0.999029
vt 0.009866 0.998954
vt 0.769812 0.665600
vt 0.769795 0.656521
vt 0.760774 0.656521
vt 0.321340 0.618454
vt 0.321486 0.619157
vt 0.489934 0.607788
vt 0.327250 0.609863
vt 0.151623 0.607227
vt 0.312354 0.609863
vn 0.0000 0.1266 -0.9920
vn 0.0000 0.0000 -1.0000
vn 0.0000 -0.0000 1.0000
vn 0.0000 -1.0000 -0.0000
vn 1.0000 0.0000 0.0000
vn 0.0000 1.0000 0.0000
vn -1.0000 0.0000 0.0000
vn 0.0000 0.2511 -0.9680
vn 0.0000 0.3183 -0.9480
vn 0.0000 0.2756 -0.9613
vn 0.1173 0.2821 -0.9522
vn 0.1264 0.2831 -0.9507
vn 0.0000 0.2756 0.9613
vn -0.1173 0.2821 0.9522
vn -0.1264 0.2831 0.9507
vn 0.2444 0.3030 -0.9211
vn 0.2632 0.3070 -0.9146
vn -0.2444 0.3030 0.9211
vn -0.2632 0.3070 0.9146
vn 0.3925 0.3418 -0.8539
vn 0.4210 0.3505 -0.8366
vn -0.3925 0.3418 0.8539
vn -0.4210 0.3505 0.8366
vn 0.5704 0.4029 -0.7158
vn 0.6035 0.4152 -0.6807
vn -0.5704 0.4029 0.7158
vn -0.6035 0.4152 0.6807
vn 0.7595 0.4786 -0.4406
vn 0.7892 0.4766 -0.3872
vn -0.7600 0.4916 0.4252
vn -0.7780 0.4863 0.3978
vn 0.8484 0.4864 -0.2089
vn 0.8623 0.4698 -0.1889
vn -0.8254 0.5272 0.2020
vn -0.8484 0.4864 -0.2089
vn -0.7892 0.4766 -0.3872
vn -0.8623 0.4698 -0.1889
vn 0.8254 0.5272 0.2020
vn 0.7600 0.4916 0.4252
vn 0.7780 0.4863 0.3978
vn -0.7595 0.4786 -0.4406
vn -0.6035 0.4152 -0.6807
vn 0.6035 0.4152 0.6807
vn -0.5704 0.4029 -0.7158
vn -0.4210 0.3505 -0.8366
vn 0.5704 0.4029 0.7158
vn 0.4210 0.3505 0.8366
vn -0.3925 0.3418 -0.8539
vn -0.2632 0.3070 -0.9146
vn 0.3925 0.3418 0.8539
vn 0.2632 0.3070 0.9146
vn -0.2444 0.3030 -0.9211
vn -0.1264 0.2831 -0.9507
vn 0.2444 0.3030 0.9211
vn 0.1264 0.2831 0.9507
vn -0.1173 0.2821 -0.9522
vn 0.1173 0.2821 0.9522
vn 0.0000 0.2764 0.9610
vn -0.8187 0.5475 0.1732
vn 0.8187 0.5475 0.1732
usemtl 01_-_Default.002
s 1
f 9/1/1 1/2/2 8/3/1
f 10/4/3 5/5/3 6/6/3
f 2/7/4 5/8/4 1/9/4
f 9/10/5 6/11/5 2/12/5
f 3/13/6 10/14/6 4/15/6
f 3/16/7 8/17/7 7/18/7
f 4/19/8 8/3/1 3/20/8
f 9/10/5 4/21/5 10/22/5
f 5/23/7 8/17/7 1/24/7
f 15/25/4 16/26/4 11/27/4
f 12/28/7 11/29/7 16/30/7
f 13/31/9 11/32/9 12/33/9
f 12/33/3 14/34/3 13/31/3
f 15/35/5 13/36/5 14/37/5
f 17/38/10 21/39/11 20/40/12
f 18/41/13 22/42/14 21/43/15
f 17/44/4 22/45/4 19/46/4
f 20/40/12 24/47/16 23/48/17
f 21/43/15 25/49/18 24/50/19
f 20/51/4 25/52/4 22/45/4
f 23/48/17 27/53/20 26/54/21
f 24/50/19 28/55/22 27/56/23
f 23/57/4 28/58/4 25/52/4
f 26/54/21 30/59/24 29/60/25
f 27/56/23 31/61/26 30/62/27
f 26/63/4 31/64/4 28/58/4
f 29/60/25 33/65/28 32/66/29
f 30/62/27 34/67/30 33/68/31
f 29/69/4 34/70/4 31/64/4
f 32/66/29 36/71/32 35/72/33
f 34/67/30 36/73/34 33/68/31
f 32/74/4 37/75/4 34/70/4
f 39/76/35 41/77/36 38/78/37
f 39/79/38 43/80/39 42/81/40
f 40/82/4 41/83/4 43/84/4
f 42/85/41 44/86/42 41/77/36
f 43/80/39 45/87/43 42/81/40
f 43/84/4 44/88/4 46/89/4
f 45/90/44 47/91/45 44/86/42
f 46/92/46 48/93/47 45/87/43
f 46/89/4 47/94/4 49/95/4
f 48/96/48 50/97/49 47/91/45
f 49/98/50 51/99/51 48/93/47
f 49/95/4 50/100/4 52/101/4
f 51/102/52 53/103/53 50/97/49
f 52/104/54 54/105/55 51/99/51
f 52/101/4 53/106/4 55/107/4
f 54/108/56 17/38/10 53/103/53
f 55/109/57 18/41/13 54/105/55
f 55/107/4 17/44/4 19/46/4
f 38/110/58 40/111/58 39/112/58
f 36/113/58 37/114/58 35/115/58
f 9/1/1 2/116/2 1/2/2
f 10/4/3 7/117/3 5/5/3
f 2/7/4 6/118/4 5/8/4
f 9/10/5 10/22/5 6/11/5
f 3/13/6 7/119/6 10/14/6
f 4/19/8 9/1/1 8/3/1
f 5/23/7 7/18/7 8/17/7
f 15/25/4 14/120/4 16/26/4
f 13/31/9 15/121/9 11/32/9
f 12/33/3 16/122/3 14/34/3
f 17/38/10 18/123/10 21/39/11
f 18/41/13 19/124/13 22/42/14
f 17/44/4 20/51/4 22/45/4
f 20/40/12 21/39/11 24/47/16
f 21/43/15 22/42/14 25/49/18
f 20/51/4 23/57/4 25/52/4
f 23/48/17 24/47/16 27/53/20
f 24/50/19 25/49/18 28/55/22
f 23/57/4 26/63/4 28/58/4
f 26/54/21 27/53/20 30/59/24
f 27/56/23 28/55/22 31/61/26
f 26/63/4 29/69/4 31/64/4
f 29/60/25 30/59/24 33/65/28
f 30/62/27 31/61/26 34/67/30
f 29/69/4 32/74/4 34/70/4
f 32/66/29 33/65/28 36/71/32
f 34/67/30 37/125/59 36/73/34
f 32/74/4 35/126/4 37/75/4
f 39/76/35 42/85/41 41/77/36
f 39/79/38 40/127/60 43/80/39
f 40/82/4 38/128/4 41/83/4
f 42/85/41 45/90/44 44/86/42
f 43/80/39 46/92/46 45/87/43
f 43/84/4 41/83/4 44/88/4
f 45/90/44 48/96/48 47/91/45
f 46/92/46 49/98/50 48/93/47
f 46/89/4 44/88/4 47/94/4
f 48/96/48 51/102/52 50/97/49
f 49/98/50 52/104/54 51/99/51
f 49/95/4 47/94/4 50/100/4
f 51/102/52 54/108/56 53/103/53
f 52/104/54 55/109/57 54/105/55
f 52/101/4 50/100/4 53/106/4
f 54/108/56 18/123/10 17/38/10
f 55/109/57 19/124/13 18/41/13
f 55/107/4 53/106/4 17/44/4
